<svg xmlns="http://www.w3.org/2000/svg" viewBox="0 0 130.79 74.56"><defs><style>.cls-1{fill:#eaeaea;}</style></defs><title>Asset 5</title><g id="Layer_2" data-name="Layer 2"><g id="Layer_1-2" data-name="Layer 1"><path class="cls-1" d="M12.35,42.61H8.24L6.19,39l2.05-3.58h4.11L14.4,39Zm-4.06-.07h4l2-3.5-2-3.5h-4l-2,3.5Z"/><path class="cls-1" d="M6.21,39.07H2.11L.05,35.5l2.06-3.58h4.1L8.27,35.5ZM2.15,39h4l2-3.5-2-3.5h-4l-2,3.5Z"/><path class="cls-1" d="M18.49,39.07H14.38L12.33,35.5l2.05-3.58h4.11l2.05,3.58ZM14.43,39h4l2-3.5-2-3.5h-4l-2,3.5Z"/><path class="cls-1" d="M12.35,35.53H8.24L6.19,32l2.05-3.58h4.11L14.4,32Zm-4.06-.07h4l2-3.5-2-3.5h-4l-2,3.5Z"/><path class="cls-1" d="M6.21,32H2.11L.05,28.42l2.06-3.58h4.1l2.06,3.58Zm-4.06-.07h4l2-3.5-2-3.51h-4l-2,3.51Z"/><path class="cls-1" d="M18.49,32H14.38l-2.05-3.57,2.05-3.58h4.11l2.05,3.58Zm-4.06-.07h4l2-3.5-2-3.51h-4l-2,3.51Z"/><path class="cls-1" d="M12.35,28.45H8.24l-2-3.58L8.24,21.3h4.11l2.05,3.57Zm-4.06-.07h4l2-3.51-2-3.5h-4l-2,3.5Z"/><path class="cls-1" d="M6.21,24.91H2.11L.05,21.33l2.06-3.57h4.1l2.06,3.57Zm-4.06-.08h4l2-3.5-2-3.5h-4l-2,3.5Z"/><path class="cls-1" d="M18.49,24.91H14.38l-2.05-3.58,2.05-3.57h4.11l2.05,3.57Zm-4.06-.08h4l2-3.5-2-3.5h-4l-2,3.5Z"/><path class="cls-1" d="M12.35,21.37H8.24l-2-3.58,2.05-3.57h4.11l2.05,3.57Zm-4.06-.08h4l2-3.5-2-3.5h-4l-2,3.5Z"/><path class="cls-1" d="M6.21,17.83H2.11L.05,14.25l2.06-3.57h4.1l2.06,3.57Zm-4.06-.08h4l2-3.5-2-3.5h-4l-2,3.5Z"/><path class="cls-1" d="M18.49,17.83H14.38l-2.05-3.58,2.05-3.57h4.11l2.05,3.57Zm-4.06-.08h4l2-3.5-2-3.5h-4l-2,3.5Z"/><path class="cls-1" d="M12.35,14.29H8.24l-2-3.58L8.24,7.13h4.11l2.05,3.58Zm-4.06-.08h4l2-3.5-2-3.5h-4l-2,3.5Z"/><path class="cls-1" d="M6.21,10.75H2.11L.05,7.17,2.11,3.59h4.1L8.27,7.17Zm-4.06-.08h4l2-3.5-2-3.5h-4l-2,3.5Z"/><path class="cls-1" d="M18.49,10.75H14.38L12.33,7.17l2.05-3.58h4.11l2.05,3.58Zm-4.06-.08h4l2-3.5-2-3.5h-4l-2,3.5Z"/><path class="cls-1" d="M30.76,39.06H26.65l-2-3.58,2-3.58h4.11l2.05,3.58ZM26.69,39h4l2-3.5-2-3.5h-4l-2,3.5Z"/><path class="cls-1" d="M24.62,35.52H20.51l-2.05-3.58,2.05-3.58h4.11l2.05,3.58Zm-4.06-.08h4l2-3.5-2-3.5h-4l-2,3.5Z"/><path class="cls-1" d="M36.89,35.52h-4.1l-2.05-3.58,2.05-3.58h4.1L39,31.94Zm-4.06-.08h4l2-3.5-2-3.5h-4l-2,3.5Z"/><path class="cls-1" d="M30.76,32H26.65l-2-3.57,2-3.58h4.11l2.05,3.58Zm-4.07-.07h4l2-3.5-2-3.5h-4l-2,3.5Z"/><path class="cls-1" d="M24.62,28.43H20.51l-2.05-3.57,2.05-3.58h4.11l2.05,3.58Zm-4.06-.07h4l2-3.5-2-3.5h-4l-2,3.5Z"/><path class="cls-1" d="M36.89,28.43h-4.1l-2.05-3.57,2.05-3.58h4.1L39,24.86Zm-4.06-.07h4l2-3.5-2-3.5h-4l-2,3.5Z"/><path class="cls-1" d="M30.76,24.89H26.65l-2-3.57,2-3.58h4.11l2.05,3.58Zm-4.07-.07h4l2-3.5-2-3.5h-4l-2,3.5Z"/><path class="cls-1" d="M24.62,21.35H20.51l-2.05-3.57,2.05-3.58h4.11l2.05,3.58Zm-4.06-.07h4l2-3.5-2-3.51h-4l-2,3.51Z"/><path class="cls-1" d="M36.89,21.35h-4.1l-2.05-3.57,2.05-3.58h4.1L39,17.78Zm-4.06-.07h4l2-3.5-2-3.51h-4l-2,3.51Z"/><path class="cls-1" d="M30.76,17.81H26.65l-2-3.58,2-3.57h4.11l2.05,3.57Zm-4.07-.07h4l2-3.51-2-3.5h-4l-2,3.5Z"/><path class="cls-1" d="M24.62,14.27H20.51l-2.05-3.58,2.05-3.57h4.11l2.05,3.57Zm-4.06-.08h4l2-3.5-2-3.5h-4l-2,3.5Z"/><path class="cls-1" d="M36.89,14.27h-4.1l-2.05-3.58,2.05-3.57h4.1L39,10.69Zm-4.06-.08h4l2-3.5-2-3.5h-4l-2,3.5Z"/><path class="cls-1" d="M30.76,10.73H26.65l-2-3.58,2-3.57h4.11l2.05,3.57Zm-4.07-.08h4l2-3.5-2-3.5h-4l-2,3.5Z"/><path class="cls-1" d="M24.62,7.19H20.51L18.46,3.61,20.51,0h4.11l2.05,3.57Zm-4.06-.08h4l2-3.5-2-3.5h-4l-2,3.5Z"/><path class="cls-1" d="M36.89,7.19h-4.1L30.74,3.61,32.79,0h4.1L39,3.61Zm-4.06-.08h4l2-3.5-2-3.5h-4l-2,3.5Z"/><path class="cls-1" d="M49.05,7.15H44.94l-2-3.57,2-3.58h4.11L51.1,3.58ZM45,7.08h4l2-3.5L49,.08H45l-2,3.5Z"/><path class="cls-1" d="M85.83,7.22H81.72l-2-3.58,2-3.57h4.11l2,3.57Zm-4.06-.08h4l2-3.5-2-3.5h-4l-2,3.5Z"/><path class="cls-1" d="M122.62,7.22h-4.1l-2.06-3.58L118.52.07h4.1l2.06,3.57Zm-4.06-.08h4l2-3.5-2-3.5h-4l-2,3.5Z"/><path class="cls-1" d="M12.35,7.25H8.24l-2-3.58L8.24.09h4.11L14.4,3.67ZM8.29,7.17h4l2-3.5-2-3.5h-4l-2,3.5Z"/><path class="cls-1" d="M49.05,42.61H44.94l-2-3.57,2-3.58h4.11L51.1,39ZM45,42.54h4L51,39l-2-3.5H45L43,39Z"/><path class="cls-1" d="M42.91,39.07H38.8l-2-3.57,2-3.58h4.11L45,35.5ZM38.85,39h4l2-3.5-2-3.5h-4l-2,3.5Z"/><path class="cls-1" d="M55.18,39.07h-4.1L49,35.5l2-3.58h4.1l2.06,3.58ZM51.12,39h4l2-3.5-2-3.5h-4l-2,3.5Z"/><path class="cls-1" d="M49.05,35.53H44.94l-2-3.57,2-3.58h4.11L51.1,32ZM45,35.46h4L51,32l-2-3.5H45L43,32Z"/><path class="cls-1" d="M42.91,32H38.8l-2-3.57,2-3.58h4.11L45,28.42Zm-4.06-.07h4l2-3.5-2-3.51h-4l-2,3.51Z"/><path class="cls-1" d="M55.18,32h-4.1l-2-3.57,2-3.58h4.1l2.06,3.58Zm-4.06-.07h4l2-3.5-2-3.51h-4l-2,3.51Z"/><path class="cls-1" d="M49.05,28.45H44.94l-2-3.58,2-3.57h4.11l2.05,3.57ZM45,28.38h4l2-3.51-2-3.5H45l-2,3.5Z"/><path class="cls-1" d="M42.91,24.91H38.8l-2-3.58,2-3.57h4.11L45,21.33Zm-4.06-.08h4l2-3.5-2-3.5h-4l-2,3.5Z"/><path class="cls-1" d="M55.18,24.91h-4.1l-2-3.58,2-3.57h4.1l2.06,3.57Zm-4.06-.08h4l2-3.5-2-3.5h-4l-2,3.5Z"/><path class="cls-1" d="M49.05,21.37H44.94l-2-3.58,2-3.57h4.11l2.05,3.57ZM45,21.29h4l2-3.5-2-3.5H45l-2,3.5Z"/><path class="cls-1" d="M42.91,17.83H38.8l-2-3.58,2-3.57h4.11L45,14.25Zm-4.06-.08h4l2-3.5-2-3.5h-4l-2,3.5Z"/><path class="cls-1" d="M55.18,17.83h-4.1l-2-3.58,2-3.57h4.1l2.06,3.57Zm-4.06-.08h4l2-3.5-2-3.5h-4l-2,3.5Z"/><path class="cls-1" d="M49.05,14.29H44.94l-2-3.58,2-3.58h4.11l2.05,3.58ZM45,14.21h4l2-3.5-2-3.5H45l-2,3.5Z"/><path class="cls-1" d="M42.91,10.75H38.8l-2-3.58,2-3.58h4.11L45,7.17Zm-4.06-.08h4l2-3.5-2-3.5h-4l-2,3.5Z"/><path class="cls-1" d="M55.18,10.75h-4.1L49,7.17l2-3.58h4.1l2.06,3.58Zm-4.06-.08h4l2-3.5-2-3.5h-4l-2,3.5Z"/><path class="cls-1" d="M67.42,39.13h-4.1l-2.06-3.57L63.32,32h4.1l2,3.58Zm-4.06-.07h4l2-3.5-2-3.51h-4l-2,3.51Z"/><path class="cls-1" d="M61.28,35.59h-4.1L55.12,32l2.06-3.57h4.1L63.34,32Zm-4.06-.08h4l2-3.5-2-3.5h-4l-2,3.5Z"/><path class="cls-1" d="M73.56,35.59H69.45L67.4,32l2-3.57h4.11l2,3.57Zm-4.06-.08h4l2-3.5-2-3.5h-4l-2,3.5Z"/><path class="cls-1" d="M67.42,32.05h-4.1l-2.06-3.58,2.06-3.57h4.1l2,3.57ZM63.36,32h4l2-3.5-2-3.5h-4l-2,3.5Z"/><path class="cls-1" d="M61.28,28.51h-4.1l-2.06-3.58,2.06-3.57h4.1l2.06,3.57Zm-4.06-.08h4l2-3.5-2-3.5h-4l-2,3.5Z"/><path class="cls-1" d="M73.56,28.51H69.45l-2-3.58,2-3.57h4.11l2,3.57Zm-4.06-.08h4l2-3.5-2-3.5h-4l-2,3.5Z"/><path class="cls-1" d="M67.42,25h-4.1l-2.06-3.58,2.06-3.57h4.1l2,3.57Zm-4.06-.08h4l2-3.5-2-3.5h-4l-2,3.5Z"/><path class="cls-1" d="M61.28,21.43h-4.1l-2.06-3.58,2.06-3.58h4.1l2.06,3.58Zm-4.06-.08h4l2-3.5-2-3.5h-4l-2,3.5Z"/><path class="cls-1" d="M73.56,21.43H69.45l-2-3.58,2-3.58h4.11l2,3.58Zm-4.06-.08h4l2-3.5-2-3.5h-4l-2,3.5Z"/><path class="cls-1" d="M67.42,17.89h-4.1l-2.06-3.58,2.06-3.58h4.1l2,3.58Zm-4.06-.08h4l2-3.5-2-3.5h-4l-2,3.5Z"/><path class="cls-1" d="M61.28,14.35h-4.1l-2.06-3.58,2.06-3.58h4.1l2.06,3.58Zm-4.06-.08h4l2-3.5-2-3.5h-4l-2,3.5Z"/><path class="cls-1" d="M73.56,14.35H69.45l-2-3.58,2-3.58h4.11l2,3.58Zm-4.06-.08h4l2-3.5-2-3.5h-4l-2,3.5Z"/><path class="cls-1" d="M67.42,10.8h-4.1L61.26,7.23l2.06-3.58h4.1l2,3.58Zm-4.06-.07h4l2-3.5-2-3.5h-4l-2,3.5Z"/><path class="cls-1" d="M61.28,7.26h-4.1L55.12,3.69,57.18.11h4.1l2.06,3.58Zm-4.06-.07h4l2-3.5-2-3.5h-4l-2,3.5Z"/><path class="cls-1" d="M73.56,7.26H69.45l-2-3.57,2-3.58h4.11l2,3.58ZM69.5,7.19h4l2-3.5-2-3.5h-4l-2,3.5Z"/><path class="cls-1" d="M85.83,42.66H81.72l-2-3.57,2-3.58h4.11l2,3.58Zm-4.06-.07h4l2-3.5-2-3.5h-4l-2,3.5Z"/><path class="cls-1" d="M79.69,39.12h-4.1l-2.06-3.57L75.59,32h4.1l2.06,3.58Zm-4.06-.07h4l2-3.5-2-3.5h-4l-2,3.5Z"/><path class="cls-1" d="M92,39.12H87.86l-2-3.57,2-3.58H92l2,3.58Zm-4.06-.07h4l2-3.5-2-3.5h-4l-2,3.5Z"/><path class="cls-1" d="M85.83,35.58H81.72l-2-3.57,2-3.58h4.11l2,3.58Zm-4.06-.07h4l2-3.5-2-3.51h-4l-2,3.51Z"/><path class="cls-1" d="M79.69,32h-4.1l-2.06-3.58,2.06-3.57h4.1l2.06,3.57ZM75.63,32h4l2-3.51-2-3.5h-4l-2,3.5Z"/><path class="cls-1" d="M92,32H87.86l-2-3.58,2-3.57H92l2,3.57ZM87.91,32h4l2-3.51-2-3.5h-4l-2,3.5Z"/><path class="cls-1" d="M85.83,28.5H81.72l-2-3.58,2-3.57h4.11l2,3.57Zm-4.06-.08h4l2-3.5-2-3.5h-4l-2,3.5Z"/><path class="cls-1" d="M79.69,25h-4.1l-2.06-3.58,2.06-3.57h4.1l2.06,3.57Zm-4.06-.08h4l2-3.5-2-3.5h-4l-2,3.5Z"/><path class="cls-1" d="M92,25H87.86l-2-3.58,2-3.57H92l2,3.57Zm-4.06-.08h4l2-3.5-2-3.5h-4l-2,3.5Z"/><path class="cls-1" d="M85.83,21.42H81.72l-2-3.58,2-3.57h4.11l2,3.57Zm-4.06-.08h4l2-3.5-2-3.5h-4l-2,3.5Z"/><path class="cls-1" d="M79.69,17.88h-4.1L73.53,14.3l2.06-3.58h4.1l2.06,3.58Zm-4.06-.08h4l2-3.5-2-3.5h-4l-2,3.5Z"/><path class="cls-1" d="M92,17.88H87.86l-2-3.58,2-3.58H92l2,3.58Zm-4.06-.08h4l2-3.5-2-3.5h-4l-2,3.5Z"/><path class="cls-1" d="M85.83,14.34H81.72l-2-3.58,2-3.58h4.11l2,3.58Zm-4.06-.08h4l2-3.5-2-3.5h-4l-2,3.5Z"/><path class="cls-1" d="M79.69,10.8h-4.1L73.53,7.22l2.06-3.58h4.1l2.06,3.58Zm-4.06-.08h4l2-3.5-2-3.5h-4l-2,3.5Z"/><path class="cls-1" d="M92,10.8H87.86l-2-3.58,2-3.58H92l2,3.58Zm-4.06-.08h4l2-3.5-2-3.5h-4l-2,3.5Z"/><path class="cls-1" d="M104.23,39.12h-4.11l-2.05-3.57L100.12,32h4.11l2,3.58Zm-4.07-.07h4l2-3.5-2-3.5h-4l-2,3.5Z"/><path class="cls-1" d="M98.09,35.58H94l-2-3.57,2-3.58h4.11l2,3.58ZM94,35.51h4l2-3.5-2-3.51H94L92,32Z"/><path class="cls-1" d="M110.36,35.58h-4.1L104.21,32l2.05-3.58h4.1L112.42,32Zm-4.06-.07h4l2-3.5-2-3.51h-4l-2,3.51Z"/><path class="cls-1" d="M104.23,32h-4.11l-2.05-3.58,2.05-3.57h4.11l2,3.57ZM100.16,32h4l2-3.51-2-3.5h-4l-2,3.5Z"/><path class="cls-1" d="M98.09,28.5H94l-2-3.58,2-3.57h4.11l2,3.57ZM94,28.42h4l2-3.5-2-3.5H94l-2,3.5Z"/><path class="cls-1" d="M110.36,28.5h-4.1l-2.05-3.58,2.05-3.57h4.1l2.06,3.57Zm-4.06-.08h4l2-3.5-2-3.5h-4l-2,3.5Z"/><path class="cls-1" d="M104.23,25h-4.11l-2.05-3.58,2.05-3.57h4.11l2,3.57Zm-4.07-.08h4l2-3.5-2-3.5h-4l-2,3.5Z"/><path class="cls-1" d="M98.09,21.42H94l-2-3.58,2-3.57h4.11l2,3.57ZM94,21.34h4l2-3.5-2-3.5H94l-2,3.5Z"/><path class="cls-1" d="M110.36,21.42h-4.1l-2.05-3.58,2.05-3.57h4.1l2.06,3.57Zm-4.06-.08h4l2-3.5-2-3.5h-4l-2,3.5Z"/><path class="cls-1" d="M104.23,17.88h-4.11L98.07,14.3l2.05-3.58h4.11l2,3.58Zm-4.07-.08h4l2-3.5-2-3.5h-4l-2,3.5Z"/><path class="cls-1" d="M98.09,14.34H94l-2-3.58,2-3.58h4.11l2,3.58ZM94,14.26h4l2-3.5-2-3.5H94l-2,3.5Z"/><path class="cls-1" d="M110.36,14.34h-4.1l-2.05-3.58,2.05-3.58h4.1l2.06,3.58Zm-4.06-.08h4l2-3.5-2-3.5h-4l-2,3.5Z"/><path class="cls-1" d="M104.23,10.8h-4.11L98.07,7.22l2.05-3.58h4.11l2,3.58Zm-4.07-.08h4l2-3.5-2-3.5h-4l-2,3.5Z"/><path class="cls-1" d="M98.09,7.25H94l-2-3.57L94,.1h4.11l2,3.58ZM94,7.18h4l2-3.5-2-3.5H94l-2,3.5Z"/><path class="cls-1" d="M110.36,7.25h-4.1l-2.05-3.57L106.26.1h4.1l2.06,3.58Zm-4.06-.07h4l2-3.5-2-3.5h-4l-2,3.5Z"/><path class="cls-1" d="M122.6,42.59h-4.11l-2-3.58,2-3.58h4.11L124.65,39Zm-4.06-.08h4l2-3.5-2-3.5h-4l-2,3.5Z"/><path class="cls-1" d="M116.46,39.05h-4.1l-2.06-3.58,2.06-3.58h4.1l2.05,3.58ZM112.4,39h4l2-3.5-2-3.5h-4l-2,3.5Z"/><path class="cls-1" d="M128.74,39.05h-4.11l-2-3.58,2-3.58h4.11l2,3.58ZM124.67,39h4l2-3.5-2-3.5h-4l-2,3.5Z"/><path class="cls-1" d="M122.6,35.51h-4.11l-2-3.58,2-3.58h4.11l2.05,3.58Zm-4.06-.08h4l2-3.5-2-3.5h-4l-2,3.5Z"/><path class="cls-1" d="M116.46,32h-4.1l-2.06-3.57,2.06-3.58h4.1l2.05,3.58Zm-4.06-.07h4l2-3.5-2-3.5h-4l-2,3.5Z"/><path class="cls-1" d="M128.74,32h-4.11l-2-3.57,2-3.58h4.11l2,3.58Zm-4.07-.07h4l2-3.5-2-3.5h-4l-2,3.5Z"/><path class="cls-1" d="M122.6,28.42h-4.11l-2-3.57,2-3.58h4.11l2.05,3.58Zm-4.06-.07h4l2-3.5-2-3.5h-4l-2,3.5Z"/><path class="cls-1" d="M116.46,24.88h-4.1l-2.06-3.57,2.06-3.58h4.1l2.05,3.58Zm-4.06-.07h4l2-3.5-2-3.5h-4l-2,3.5Z"/><path class="cls-1" d="M128.74,24.88h-4.11l-2-3.57,2-3.58h4.11l2,3.58Zm-4.07-.07h4l2-3.5-2-3.5h-4l-2,3.5Z"/><path class="cls-1" d="M122.6,21.34h-4.11l-2-3.57,2-3.58h4.11l2.05,3.58Zm-4.06-.07h4l2-3.5-2-3.51h-4l-2,3.51Z"/><path class="cls-1" d="M116.46,17.8h-4.1l-2.06-3.58,2.06-3.57h4.1l2.05,3.57Zm-4.06-.08h4l2-3.5-2-3.5h-4l-2,3.5Z"/><path class="cls-1" d="M128.74,17.8h-4.11l-2-3.58,2-3.57h4.11l2,3.57Zm-4.07-.08h4l2-3.5-2-3.5h-4l-2,3.5Z"/><path class="cls-1" d="M122.6,14.26h-4.11l-2-3.58,2-3.57h4.11l2.05,3.57Zm-4.06-.08h4l2-3.5-2-3.5h-4l-2,3.5Z"/><path class="cls-1" d="M116.46,10.72h-4.1L110.3,7.14l2.06-3.57h4.1l2.05,3.57Zm-4.06-.08h4l2-3.5-2-3.5h-4l-2,3.5Z"/><path class="cls-1" d="M128.74,10.72h-4.11l-2-3.58,2-3.57h4.11l2,3.57Zm-4.07-.08h4l2-3.5-2-3.5h-4l-2,3.5Z"/><path class="cls-1" d="M6.16,74.5H2.05L0,70.93l2.05-3.58H6.16l2.05,3.58ZM2.1,74.43h4l2-3.5-2-3.5h-4l-2,3.5Z"/><path class="cls-1" d="M18.44,74.5H14.33l-2.05-3.57,2.05-3.58h4.11l2,3.58Zm-4.07-.07h4l2-3.5-2-3.5h-4l-2,3.5Z"/><path class="cls-1" d="M12.3,71H8.19l-2-3.57,2.05-3.58H12.3l2,3.58Zm-4.07-.07h4l2-3.5-2-3.5h-4l-2,3.5Z"/><path class="cls-1" d="M6.16,67.42H2.05L0,63.85l2.05-3.58H6.16l2.05,3.58ZM2.1,67.35h4l2-3.5-2-3.51h-4l-2,3.51Z"/><path class="cls-1" d="M18.44,67.42H14.33l-2.05-3.57,2.05-3.58h4.11l2,3.58Zm-4.07-.07h4l2-3.5-2-3.51h-4l-2,3.51Z"/><path class="cls-1" d="M12.3,63.88H8.19l-2-3.58,2.05-3.57H12.3l2,3.57Zm-4.07-.07h4l2-3.51-2-3.5h-4l-2,3.5Z"/><path class="cls-1" d="M6.16,60.34H2.05L0,56.76l2.05-3.57H6.16l2.05,3.57ZM2.1,60.26h4l2-3.5-2-3.5h-4l-2,3.5Z"/><path class="cls-1" d="M18.44,60.34H14.33l-2.05-3.58,2.05-3.57h4.11l2,3.57Zm-4.07-.08h4l2-3.5-2-3.5h-4l-2,3.5Z"/><path class="cls-1" d="M12.3,56.8H8.19l-2-3.58,2.05-3.57H12.3l2,3.57Zm-4.07-.08h4l2-3.5-2-3.5h-4l-2,3.5Z"/><path class="cls-1" d="M6.16,53.26H2.05L0,49.68l2.05-3.57H6.16l2.05,3.57ZM2.1,53.18h4l2-3.5-2-3.5h-4l-2,3.5Z"/><path class="cls-1" d="M18.44,53.26H14.33l-2.05-3.58,2.05-3.57h4.11l2,3.57Zm-4.07-.08h4l2-3.5-2-3.5h-4l-2,3.5Z"/><path class="cls-1" d="M12.3,49.72H8.19l-2-3.58,2.05-3.58H12.3l2,3.58Zm-4.07-.08h4l2-3.5-2-3.5h-4l-2,3.5Z"/><path class="cls-1" d="M6.16,46.18H2.05L0,42.6,2.05,39H6.16L8.21,42.6ZM2.1,46.1h4l2-3.5-2-3.5h-4l-2,3.5Z"/><path class="cls-1" d="M18.44,46.18H14.33L12.28,42.6,14.33,39h4.11l2,3.58Zm-4.07-.08h4l2-3.5-2-3.5h-4l-2,3.5Z"/><path class="cls-1" d="M30.7,74.49H26.6l-2.05-3.58,2.05-3.58h4.1l2.06,3.58Zm-4.06-.08h4l2-3.5-2-3.5h-4l-2,3.5Z"/><path class="cls-1" d="M24.57,71H20.46l-2.05-3.58,2.05-3.58h4.11l2.05,3.58Zm-4.07-.08h4l2-3.5-2-3.5h-4l-2,3.5Z"/><path class="cls-1" d="M36.84,71h-4.1l-2.06-3.58,2.06-3.58h4.1l2.06,3.58Zm-4.06-.08h4l2-3.5-2-3.5h-4l-2,3.5Z"/><path class="cls-1" d="M30.7,67.4H26.6l-2.05-3.57,2.05-3.58h4.1l2.06,3.58Zm-4.06-.07h4l2-3.5-2-3.5h-4l-2,3.5Z"/><path class="cls-1" d="M24.57,63.86H20.46l-2.05-3.57,2.05-3.58h4.11l2.05,3.58Zm-4.07-.07h4l2-3.5-2-3.5h-4l-2,3.5Z"/><path class="cls-1" d="M36.84,63.86h-4.1l-2.06-3.57,2.06-3.58h4.1l2.06,3.58Zm-4.06-.07h4l2-3.5-2-3.5h-4l-2,3.5Z"/><path class="cls-1" d="M30.7,60.32H26.6l-2.05-3.57,2.05-3.58h4.1l2.06,3.58Zm-4.06-.07h4l2-3.5-2-3.5h-4l-2,3.5Z"/><path class="cls-1" d="M24.57,56.78H20.46L18.41,53.2l2.05-3.57h4.11l2.05,3.57Zm-4.07-.07h4l2-3.51-2-3.5h-4l-2,3.5Z"/><path class="cls-1" d="M36.84,56.78h-4.1L30.68,53.2l2.06-3.57h4.1L38.9,53.2Zm-4.06-.07h4l2-3.51-2-3.5h-4l-2,3.5Z"/><path class="cls-1" d="M30.7,53.24H26.6l-2.05-3.58,2.05-3.57h4.1l2.06,3.57Zm-4.06-.08h4l2-3.5-2-3.5h-4l-2,3.5Z"/><path class="cls-1" d="M24.57,49.7H20.46l-2.05-3.58,2.05-3.57h4.11l2.05,3.57Zm-4.07-.08h4l2-3.5-2-3.5h-4l-2,3.5Z"/><path class="cls-1" d="M36.84,49.7h-4.1l-2.06-3.58,2.06-3.57h4.1l2.06,3.57Zm-4.06-.08h4l2-3.5-2-3.5h-4l-2,3.5Z"/><path class="cls-1" d="M30.7,46.16H26.6l-2.05-3.58L26.6,39h4.1l2.06,3.57Zm-4.06-.08h4l2-3.5-2-3.5h-4l-2,3.5Z"/><path class="cls-1" d="M24.57,42.62H20.46L18.41,39l2.05-3.57h4.11L26.62,39Zm-4.07-.08h4l2-3.5-2-3.5h-4l-2,3.5Z"/><path class="cls-1" d="M36.84,42.62h-4.1L30.68,39l2.06-3.57h4.1L38.9,39Zm-4.06-.08h4l2-3.5-2-3.5h-4l-2,3.5Z"/><path class="cls-1" d="M49,42.58h-4.1L42.83,39l2.06-3.58H49L51.05,39Zm-4.06-.07h4L51,39l-2-3.5h-4l-2,3.5Z"/><path class="cls-1" d="M85.78,42.65H81.67l-2-3.58,2-3.57h4.11l2,3.57Zm-4.07-.08h4l2-3.5-2-3.5h-4l-2,3.5Z"/><path class="cls-1" d="M122.57,42.65h-4.11l-2-3.58,2-3.57h4.11l2.05,3.57Zm-4.06-.08h4l2-3.5-2-3.5h-4l-2,3.5Z"/><path class="cls-1" d="M12.3,42.68H8.19l-2-3.58,2.05-3.58H12.3l2,3.58ZM8.23,42.6h4l2-3.5-2-3.5h-4l-2,3.5Z"/><path class="cls-1" d="M42.86,74.5H38.75l-2-3.57,2-3.58h4.11l2,3.58Zm-4.07-.07h4l2-3.5-2-3.5h-4l-2,3.5Z"/><path class="cls-1" d="M55.13,74.5H51L49,70.93,51,67.35h4.1l2,3.58Zm-4.06-.07h4l2-3.5-2-3.5h-4l-2,3.5Z"/><path class="cls-1" d="M49,71h-4.1l-2.06-3.57,2.06-3.58H49l2.06,3.58Zm-4.06-.07h4l2-3.5-2-3.5h-4l-2,3.5Z"/><path class="cls-1" d="M42.86,67.42H38.75l-2-3.57,2-3.58h4.11l2,3.58Zm-4.07-.07h4l2-3.5-2-3.51h-4l-2,3.51Z"/><path class="cls-1" d="M55.13,67.42H51L49,63.85,51,60.27h4.1l2,3.58Zm-4.06-.07h4l2-3.5-2-3.51h-4l-2,3.51Z"/><path class="cls-1" d="M49,63.88h-4.1L42.83,60.3l2.06-3.57H49l2.06,3.57Zm-4.06-.07h4l2-3.51-2-3.5h-4l-2,3.5Z"/><path class="cls-1" d="M42.86,60.34H38.75l-2-3.58,2-3.57h4.11l2,3.57Zm-4.07-.08h4l2-3.5-2-3.5h-4l-2,3.5Z"/><path class="cls-1" d="M55.13,60.34H51L49,56.76,51,53.19h4.1l2,3.57Zm-4.06-.08h4l2-3.5-2-3.5h-4l-2,3.5Z"/><path class="cls-1" d="M49,56.8h-4.1l-2.06-3.58,2.06-3.57H49l2.06,3.57Zm-4.06-.08h4l2-3.5-2-3.5h-4l-2,3.5Z"/><path class="cls-1" d="M42.86,53.26H38.75l-2-3.58,2-3.57h4.11l2,3.57Zm-4.07-.08h4l2-3.5-2-3.5h-4l-2,3.5Z"/><path class="cls-1" d="M55.13,53.26H51L49,49.68,51,46.11h4.1l2,3.57Zm-4.06-.08h4l2-3.5-2-3.5h-4l-2,3.5Z"/><path class="cls-1" d="M49,49.72h-4.1l-2.06-3.58,2.06-3.58H49l2.06,3.58Zm-4.06-.08h4l2-3.5-2-3.5h-4l-2,3.5Z"/><path class="cls-1" d="M42.86,46.18H38.75l-2-3.58,2-3.58h4.11l2,3.58Zm-4.07-.08h4l2-3.5-2-3.5h-4l-2,3.5Z"/><path class="cls-1" d="M55.13,46.18H51L49,42.6,51,39h4.1l2,3.58Zm-4.06-.08h4l2-3.5-2-3.5h-4l-2,3.5Z"/><path class="cls-1" d="M67.37,74.56H63.26l-2-3.57,2-3.58h4.11l2,3.58Zm-4.06-.07h4l2-3.5-2-3.51h-4L61.3,71Z"/><path class="cls-1" d="M61.23,71h-4.1l-2.06-3.58,2.06-3.57h4.1l2.05,3.57Zm-4.06-.08h4l2-3.5-2-3.5h-4l-2,3.5Z"/><path class="cls-1" d="M73.51,71H69.4l-2.05-3.58,2.05-3.57h4.11l2,3.57Zm-4.07-.08h4l2-3.5-2-3.5h-4l-2,3.5Z"/><path class="cls-1" d="M67.37,67.48H63.26l-2-3.58,2-3.57h4.11l2,3.57Zm-4.06-.08h4l2-3.5-2-3.5h-4l-2,3.5Z"/><path class="cls-1" d="M61.23,63.94h-4.1l-2.06-3.58,2.06-3.57h4.1l2.05,3.57Zm-4.06-.08h4l2-3.5-2-3.5h-4l-2,3.5Z"/><path class="cls-1" d="M73.51,63.94H69.4l-2.05-3.58,2.05-3.57h4.11l2,3.57Zm-4.07-.08h4l2-3.5-2-3.5h-4l-2,3.5Z"/><path class="cls-1" d="M67.37,60.4H63.26l-2-3.58,2-3.57h4.11l2,3.57Zm-4.06-.08h4l2-3.5-2-3.5h-4l-2,3.5Z"/><path class="cls-1" d="M61.23,56.86h-4.1l-2.06-3.58,2.06-3.58h4.1l2.05,3.58Zm-4.06-.08h4l2-3.5-2-3.5h-4l-2,3.5Z"/><path class="cls-1" d="M73.51,56.86H69.4l-2.05-3.58L69.4,49.7h4.11l2,3.58Zm-4.07-.08h4l2-3.5-2-3.5h-4l-2,3.5Z"/><path class="cls-1" d="M67.37,53.32H63.26l-2-3.58,2-3.58h4.11l2,3.58Zm-4.06-.08h4l2-3.5-2-3.5h-4l-2,3.5Z"/><path class="cls-1" d="M61.23,49.78h-4.1L55.07,46.2l2.06-3.58h4.1l2.05,3.58Zm-4.06-.08h4l2-3.5-2-3.5h-4l-2,3.5Z"/><path class="cls-1" d="M73.51,49.78H69.4L67.35,46.2l2.05-3.58h4.11l2,3.58Zm-4.07-.08h4l2-3.5-2-3.5h-4l-2,3.5Z"/><path class="cls-1" d="M67.37,46.23H63.26l-2-3.57,2-3.58h4.11l2,3.58Zm-4.06-.07h4l2-3.5-2-3.5h-4l-2,3.5Z"/><path class="cls-1" d="M61.23,42.69h-4.1l-2.06-3.57,2.06-3.58h4.1l2.05,3.58Zm-4.06-.07h4l2-3.5-2-3.5h-4l-2,3.5Z"/><path class="cls-1" d="M73.51,42.69H69.4l-2.05-3.57,2.05-3.58h4.11l2,3.58Zm-4.07-.07h4l2-3.5-2-3.5h-4l-2,3.5Z"/><path class="cls-1" d="M79.64,74.55H75.53l-2-3.57,2-3.58h4.11l2,3.58Zm-4.06-.07h4l2-3.5-2-3.5h-4l-2,3.5Z"/><path class="cls-1" d="M91.91,74.55h-4.1l-2-3.57,2-3.58h4.1L94,71Zm-4.06-.07h4l2-3.5-2-3.5h-4l-2,3.5Z"/><path class="cls-1" d="M85.78,71H81.67l-2-3.57,2-3.58h4.11l2,3.58Zm-4.07-.07h4l2-3.5-2-3.51h-4l-2,3.51Z"/><path class="cls-1" d="M79.64,67.47H75.53l-2-3.58,2-3.57h4.11l2,3.57Zm-4.06-.08h4l2-3.5-2-3.5h-4l-2,3.5Z"/><path class="cls-1" d="M91.91,67.47h-4.1l-2-3.58,2-3.57h4.1L94,63.89Zm-4.06-.08h4l2-3.5-2-3.5h-4l-2,3.5Z"/><path class="cls-1" d="M85.78,63.93H81.67l-2-3.58,2-3.57h4.11l2,3.57Zm-4.07-.08h4l2-3.5-2-3.5h-4l-2,3.5Z"/><path class="cls-1" d="M79.64,60.39H75.53l-2-3.58,2-3.57h4.11l2,3.57Zm-4.06-.08h4l2-3.5-2-3.5h-4l-2,3.5Z"/><path class="cls-1" d="M91.91,60.39h-4.1l-2-3.58,2-3.57h4.1L94,56.81Zm-4.06-.08h4l2-3.5-2-3.5h-4l-2,3.5Z"/><path class="cls-1" d="M85.78,56.85H81.67l-2-3.58,2-3.57h4.11l2,3.57Zm-4.07-.08h4l2-3.5-2-3.5h-4l-2,3.5Z"/><path class="cls-1" d="M79.64,53.31H75.53l-2-3.58,2-3.58h4.11l2,3.58Zm-4.06-.08h4l2-3.5-2-3.5h-4l-2,3.5Z"/><path class="cls-1" d="M91.91,53.31h-4.1l-2-3.58,2-3.58h4.1L94,49.73Zm-4.06-.08h4l2-3.5-2-3.5h-4l-2,3.5Z"/><path class="cls-1" d="M85.78,49.77H81.67l-2-3.58,2-3.58h4.11l2,3.58Zm-4.07-.08h4l2-3.5-2-3.5h-4l-2,3.5Z"/><path class="cls-1" d="M79.64,46.23H75.53l-2-3.58,2-3.58h4.11l2,3.58Zm-4.06-.08h4l2-3.5-2-3.5h-4l-2,3.5Z"/><path class="cls-1" d="M91.91,46.23h-4.1l-2-3.58,2-3.58h4.1L94,42.65Zm-4.06-.08h4l2-3.5-2-3.5h-4l-2,3.5Z"/><path class="cls-1" d="M104.17,74.55h-4.1L98,71l2.06-3.58h4.1L106.23,71Zm-4.06-.07h4l2-3.5-2-3.5h-4l-2,3.5Z"/><path class="cls-1" d="M98,71H93.93l-2.05-3.57,2.05-3.58H98l2,3.58ZM94,70.94h4l2-3.5-2-3.51H94l-2,3.51Z"/><path class="cls-1" d="M110.31,71h-4.1l-2.06-3.57,2.06-3.58h4.1l2,3.58Zm-4.06-.07h4l2-3.5-2-3.51h-4l-2,3.51Z"/><path class="cls-1" d="M104.17,67.47h-4.1L98,63.89l2.06-3.57h4.1l2.06,3.57Zm-4.06-.07h4l2-3.51-2-3.5h-4l-2,3.5Z"/><path class="cls-1" d="M98,63.93H93.93l-2.05-3.58,2.05-3.57H98l2,3.57ZM94,63.85h4l2-3.5-2-3.5H94l-2,3.5Z"/><path class="cls-1" d="M110.31,63.93h-4.1l-2.06-3.58,2.06-3.57h4.1l2,3.57Zm-4.06-.08h4l2-3.5-2-3.5h-4l-2,3.5Z"/><path class="cls-1" d="M104.17,60.39h-4.1L98,56.81l2.06-3.57h4.1l2.06,3.57Zm-4.06-.08h4l2-3.5-2-3.5h-4l-2,3.5Z"/><path class="cls-1" d="M98,56.85H93.93l-2.05-3.58,2.05-3.57H98l2,3.57ZM94,56.77h4l2-3.5-2-3.5H94l-2,3.5Z"/><path class="cls-1" d="M110.31,56.85h-4.1l-2.06-3.58,2.06-3.57h4.1l2,3.57Zm-4.06-.08h4l2-3.5-2-3.5h-4l-2,3.5Z"/><path class="cls-1" d="M104.17,53.31h-4.1L98,49.73l2.06-3.58h4.1l2.06,3.58Zm-4.06-.08h4l2-3.5-2-3.5h-4l-2,3.5Z"/><path class="cls-1" d="M98,49.77H93.93l-2.05-3.58,2.05-3.58H98l2,3.58ZM94,49.69h4l2-3.5-2-3.5H94l-2,3.5Z"/><path class="cls-1" d="M110.31,49.77h-4.1l-2.06-3.58,2.06-3.58h4.1l2,3.58Zm-4.06-.08h4l2-3.5-2-3.5h-4l-2,3.5Z"/><path class="cls-1" d="M104.17,46.23h-4.1L98,42.65l2.06-3.58h4.1l2.06,3.58Zm-4.06-.08h4l2-3.5-2-3.5h-4l-2,3.5Z"/><path class="cls-1" d="M98,42.68H93.93l-2.05-3.57,2.05-3.58H98l2,3.58ZM94,42.61h4l2-3.5-2-3.5H94l-2,3.5Z"/><path class="cls-1" d="M110.31,42.68h-4.1l-2.06-3.57,2.06-3.58h4.1l2,3.58Zm-4.06-.07h4l2-3.5-2-3.5h-4l-2,3.5Z"/><path class="cls-1" d="M116.41,74.48H112.3l-2-3.58,2-3.58h4.11l2,3.58Zm-4.06-.08h4l2-3.5-2-3.5h-4l-2,3.5Z"/><path class="cls-1" d="M128.68,74.48h-4.1l-2.06-3.58,2.06-3.58h4.1l2.06,3.58Zm-4.06-.08h4l2-3.5-2-3.5h-4l-2,3.5Z"/><path class="cls-1" d="M122.55,70.93h-4.11l-2-3.57,2-3.58h4.11l2,3.58Zm-4.07-.07h4l2-3.5-2-3.5h-4l-2,3.5Z"/><path class="cls-1" d="M116.41,67.39H112.3l-2-3.57,2-3.58h4.11l2,3.58Zm-4.06-.07h4l2-3.5-2-3.5h-4l-2,3.5Z"/><path class="cls-1" d="M128.68,67.39h-4.1l-2.06-3.57,2.06-3.58h4.1l2.06,3.58Zm-4.06-.07h4l2-3.5-2-3.5h-4l-2,3.5Z"/><path class="cls-1" d="M122.55,63.85h-4.11l-2-3.57,2-3.58h4.11l2,3.58Zm-4.07-.07h4l2-3.5-2-3.5h-4l-2,3.5Z"/><path class="cls-1" d="M116.41,60.31H112.3l-2-3.57,2-3.58h4.11l2,3.58Zm-4.06-.07h4l2-3.5-2-3.5h-4l-2,3.5Z"/><path class="cls-1" d="M128.68,60.31h-4.1l-2.06-3.57,2.06-3.58h4.1l2.06,3.58Zm-4.06-.07h4l2-3.5-2-3.5h-4l-2,3.5Z"/><path class="cls-1" d="M122.55,56.77h-4.11l-2-3.57,2-3.58h4.11l2,3.58Zm-4.07-.07h4l2-3.5-2-3.51h-4l-2,3.51Z"/><path class="cls-1" d="M116.41,53.23H112.3l-2-3.58,2-3.57h4.11l2,3.57Zm-4.06-.08h4l2-3.5-2-3.5h-4l-2,3.5Z"/><path class="cls-1" d="M128.68,53.23h-4.1l-2.06-3.58,2.06-3.57h4.1l2.06,3.57Zm-4.06-.08h4l2-3.5-2-3.5h-4l-2,3.5Z"/><path class="cls-1" d="M122.55,49.69h-4.11l-2-3.58,2-3.57h4.11l2,3.57Zm-4.07-.08h4l2-3.5-2-3.5h-4l-2,3.5Z"/><path class="cls-1" d="M116.41,46.15H112.3l-2-3.58,2-3.57h4.11l2,3.57Zm-4.06-.08h4l2-3.5-2-3.5h-4l-2,3.5Z"/><path class="cls-1" d="M128.68,46.15h-4.1l-2.06-3.58L124.58,39h4.1l2.06,3.57Zm-4.06-.08h4l2-3.5-2-3.5h-4l-2,3.5Z"/></g></g></svg>