<svg xmlns="http://www.w3.org/2000/svg" viewBox="0 0 26.63 39.02"><defs><style>.cls-1{fill:#e6e7e8;}</style></defs><title>Asset 3</title><g id="Layer_2" data-name="Layer 2"><g id="Layer_1-2" data-name="Layer 1"><path class="cls-1" d="M6.16,39H2.05L0,35.44l2.05-3.57H6.16l2.05,3.57ZM2.1,38.94h4l2-3.5-2-3.5h-4l-2,3.5Z"/><path class="cls-1" d="M18.44,39H14.33l-2.05-3.58,2.05-3.57h4.11l2,3.57Zm-4.07-.08h4l2-3.5-2-3.5h-4l-2,3.5Z"/><path class="cls-1" d="M12.3,35.48H8.19l-2-3.58,2.05-3.57H12.3l2,3.57ZM8.23,35.4h4l2-3.5-2-3.5h-4l-2,3.5Z"/><path class="cls-1" d="M24.57,35.48h-4.1L18.41,31.9l2.06-3.57h4.1l2.06,3.57Zm-4.06-.08h4l2-3.5-2-3.5h-4l-2,3.5Z"/><path class="cls-1" d="M6.16,31.94H2.05L0,28.36l2.05-3.57H6.16l2.05,3.57ZM2.1,31.86h4l2-3.5-2-3.5h-4l-2,3.5Z"/><path class="cls-1" d="M18.44,31.94H14.33l-2.05-3.58,2.05-3.57h4.11l2,3.57Zm-4.07-.08h4l2-3.5-2-3.5h-4l-2,3.5Z"/><path class="cls-1" d="M12.3,28.4H8.19l-2-3.58,2.05-3.57H12.3l2,3.57Zm-4.07-.08h4l2-3.5-2-3.5h-4l-2,3.5Z"/><path class="cls-1" d="M24.57,28.4h-4.1l-2.06-3.58,2.06-3.57h4.1l2.06,3.57Zm-4.06-.08h4l2-3.5-2-3.5h-4l-2,3.5Z"/><path class="cls-1" d="M6.16,24.86H2.05L0,21.28,2.05,17.7H6.16l2.05,3.58ZM2.1,24.78h4l2-3.5-2-3.5h-4l-2,3.5Z"/><path class="cls-1" d="M18.44,24.86H14.33l-2.05-3.58,2.05-3.58h4.11l2,3.58Zm-4.07-.08h4l2-3.5-2-3.5h-4l-2,3.5Z"/><path class="cls-1" d="M12.3,21.32H8.19l-2-3.58,2.05-3.58H12.3l2,3.58Zm-4.07-.08h4l2-3.5-2-3.5h-4l-2,3.5Z"/><path class="cls-1" d="M24.57,21.32h-4.1l-2.06-3.58,2.06-3.58h4.1l2.06,3.58Zm-4.06-.08h4l2-3.5-2-3.5h-4l-2,3.5Z"/><path class="cls-1" d="M6.16,17.78H2.05L0,14.2l2.05-3.58H6.16L8.21,14.2ZM2.1,17.7h4l2-3.5-2-3.5h-4l-2,3.5Z"/><path class="cls-1" d="M18.44,17.78H14.33L12.28,14.2l2.05-3.58h4.11l2,3.58Zm-4.07-.08h4l2-3.5-2-3.5h-4l-2,3.5Z"/><path class="cls-1" d="M12.3,14.23H8.19l-2-3.57L8.19,7.08H12.3l2,3.58Zm-4.07-.07h4l2-3.5-2-3.5h-4l-2,3.5Z"/><path class="cls-1" d="M24.57,14.23h-4.1l-2.06-3.57,2.06-3.58h4.1l2.06,3.58Zm-4.06-.07h4l2-3.5-2-3.5h-4l-2,3.5Z"/><path class="cls-1" d="M6.16,10.69H2.05L0,7.12,2.05,3.54H6.16L8.21,7.12ZM2.1,10.62h4l2-3.5-2-3.5h-4l-2,3.5Z"/><path class="cls-1" d="M18.44,10.69H14.33L12.28,7.12l2.05-3.58h4.11l2,3.58Zm-4.07-.07h4l2-3.5-2-3.5h-4l-2,3.5Z"/><path class="cls-1" d="M12.3,7.15H8.19l-2-3.57L8.19,0H12.3l2,3.58ZM8.23,7.08h4l2-3.5-2-3.5h-4l-2,3.5Z"/><path class="cls-1" d="M24.57,7.15h-4.1L18.41,3.58,20.47,0h4.1l2.06,3.58Zm-4.06-.07h4l2-3.5-2-3.5h-4l-2,3.5Z"/></g></g></svg>