<?xml version="1.0" standalone="no"?>
<!DOCTYPE svg PUBLIC "-//W3C//DTD SVG 20010904//EN"
 "http://www.w3.org/TR/2001/REC-SVG-20010904/DTD/svg10.dtd">
<svg version="1.0" xmlns="http://www.w3.org/2000/svg"
 width="258.000000pt" height="217.000000pt" viewBox="0 0 258.000000 217.000000"
 preserveAspectRatio="xMidYMid meet">
 
<g transform="translate(0.000000,217.000000) scale(0.100000,-0.100000)"
fill="#ffffffff" stroke="none">
<path d="M801 2091 c-12 -16 -21 -31 -21 -33 0 -3 -61 -110 -136 -239 -75
-129 -208 -360 -297 -514 -88 -154 -180 -314 -204 -355 -83 -144 -109 -250
-101 -419 7 -131 43 -246 111 -348 53 -80 157 -183 184 -183 12 0 45 35 91 94
40 52 72 98 72 102 0 4 -24 33 -54 64 -124 130 -165 307 -107 458 9 26 87 169
173 317 249 432 312 538 325 542 20 7 2 35 300 -482 105 -181 198 -348 207
-370 26 -61 32 -178 12 -252 -22 -88 -50 -138 -112 -203 -30 -31 -54 -64 -54
-72 0 -23 132 -192 153 -196 40 -8 167 130 224 243 90 176 104 379 40 562 -31
89 6 23 -655 1166 -94 162 -111 175 -151 118z"/>
<path d="M1677 2013 c-120 -202 -176 -298 -188 -325 -11 -25 -7 -36 52 -138
35 -62 71 -116 81 -121 21 -11 34 1 89 89 22 35 45 62 52 60 14 -5 43 -51 219
-358 74 -129 164 -284 198 -344 35 -60 72 -131 82 -158 58 -153 19 -322 -103
-453 -33 -34 -59 -66 -59 -69 0 -4 33 -50 73 -102 44 -58 79 -94 90 -94 27 0
132 104 187 186 72 108 101 203 107 350 10 219 0 245 -288 744 -91 157 -237
410 -325 562 -131 228 -163 277 -181 278 -17 0 -35 -22 -86 -107z"/>
</g>
</svg>
